<?xml version="1.0" encoding="utf-8"?>
<!-- Generator: Adobe Illustrator 16.0.0, SVG Export Plug-In . SVG Version: 6.00 Build 0)  -->
<!DOCTYPE svg PUBLIC "-//W3C//DTD SVG 1.1//EN" "http://www.w3.org/Graphics/SVG/1.1/DTD/svg11.dtd" [
	<!ENTITY ns_extend "http://ns.adobe.com/Extensibility/1.0/">
	<!ENTITY ns_ai "http://ns.adobe.com/AdobeIllustrator/10.0/">
	<!ENTITY ns_graphs "http://ns.adobe.com/Graphs/1.0/">
	<!ENTITY ns_vars "http://ns.adobe.com/Variables/1.0/">
	<!ENTITY ns_imrep "http://ns.adobe.com/ImageReplacement/1.0/">
	<!ENTITY ns_sfw "http://ns.adobe.com/SaveForWeb/1.0/">
	<!ENTITY ns_custom "http://ns.adobe.com/GenericCustomNamespace/1.0/">
	<!ENTITY ns_adobe_xpath "http://ns.adobe.com/XPath/1.0/">
]>
<svg version="1.1" id="Layer_1" xmlns:x="&ns_extend;" xmlns:i="&ns_ai;" xmlns:graph="&ns_graphs;"
	 xmlns="http://www.w3.org/2000/svg" xmlns:xlink="http://www.w3.org/1999/xlink" x="0px" y="0px" width="83.486px"
	 height="99.151px" viewBox="438.625 231 83.486 99.151" enable-background="new 438.625 231 83.486 99.151" xml:space="preserve">
<metadata>
	<sfw  xmlns="&ns_sfw;">
		<slices></slices>
		<sliceSourceBounds  x="358.125" y="250.349" width="83.486" height="99.151" bottomLeftOrigin="true"></sliceSourceBounds>
	</sfw>
</metadata>
<g>
	<path fill="#47C1C3" d="M482.53,231.052c-0.083-0.017-0.164-0.037-0.249-0.052l0.008,0.042c-0.607-0.026-1.217-0.042-1.83-0.042
		c-23.005,0-41.654,18.649-41.654,41.654c0,23.004,18.649,41.654,41.654,41.654s41.652-18.649,41.652-41.654
		C522.111,250.344,504.572,232.131,482.53,231.052z M441.72,272.654c0-21.394,17.345-38.739,38.739-38.739
		c0.836,0,1.666,0.03,2.488,0.082c20.926,4.39,20.223,34.532-3.16,35.683c-22.021,1.572-27.604,23.697-20.143,35.65
		C448.868,298.451,441.72,286.389,441.72,272.654z M480.459,311.392c-5.103,0-9.974-0.986-14.435-2.78
		c-13.627-13.069-4.796-35.286,13.906-36.003c20.74-0.198,27.564-24.636,14.15-36.225c14.671,5.514,25.114,19.673,25.114,36.272
		C519.196,294.048,501.852,311.392,480.459,311.392z"/>
	<g>
		<path fill="#47C1C3" d="M474.274,258.823v-13.72c0-0.602,0.216-1.12,0.652-1.556c0.438-0.435,0.956-0.655,1.558-0.655h7.151
			c0.593,0,1.104,0.22,1.535,0.655c0.435,0.436,0.648,0.954,0.648,1.556v13.72c0,0.609-0.215,1.131-0.648,1.562
			c-0.432,0.433-0.951,0.649-1.561,0.649h-7.127c-0.619,0-1.144-0.216-1.57-0.649C474.487,259.954,474.274,259.433,474.274,258.823z
			 M483.555,258.741v-13.529h-6.987v13.529H483.555z"/>
	</g>
	<g>
		<path fill="#47C1C3" d="M475.831,299.557h3.522v-13.524h-3.465c-0.321,0-0.59-0.111-0.812-0.337
			c-0.226-0.223-0.334-0.493-0.334-0.812c0-0.317,0.108-0.59,0.334-0.812c0.224-0.225,0.491-0.334,0.812-0.334h5.76v15.818h2.294
			v-4.774c0-0.312,0.109-0.58,0.336-0.808c0.221-0.228,0.489-0.342,0.811-0.342c0.318,0,0.59,0.113,0.813,0.333
			c0.221,0.228,0.333,0.495,0.333,0.815v5.922c0,0.318-0.112,0.592-0.333,0.812c-0.225,0.223-0.495,0.334-0.813,0.334h-9.257
			c-0.316,0-0.586-0.115-0.81-0.348c-0.224-0.23-0.334-0.509-0.334-0.828c0-0.308,0.11-0.57,0.334-0.789
			C475.244,299.667,475.515,299.557,475.831,299.557z"/>
	</g>
</g>
<g>
	<path fill="#47C1C3" d="M444.255,321.746c-0.222-0.299-0.499-0.525-0.827-0.676c-0.329-0.148-0.672-0.226-1.026-0.226
		c-0.412,0-0.792,0.083-1.138,0.25c-0.346,0.168-0.644,0.396-0.895,0.678c-0.252,0.283-0.448,0.611-0.59,0.985
		c-0.139,0.372-0.208,0.764-0.208,1.167c0,0.435,0.069,0.838,0.208,1.212c0.142,0.374,0.334,0.697,0.583,0.975
		c0.248,0.276,0.544,0.494,0.891,0.654c0.346,0.161,0.729,0.241,1.147,0.241c0.454,0,0.859-0.089,1.214-0.266
		c0.356-0.181,0.668-0.437,0.935-0.771l0.661,0.555c-0.337,0.447-0.739,0.775-1.211,0.983c-0.473,0.211-1.006,0.316-1.599,0.316
		c-0.531,0-1.028-0.099-1.49-0.293c-0.459-0.196-0.86-0.467-1.198-0.813c-0.34-0.345-0.605-0.757-0.798-1.23
		c-0.193-0.477-0.289-0.996-0.289-1.562c0-0.544,0.093-1.055,0.278-1.53c0.184-0.474,0.444-0.886,0.779-1.234
		c0.337-0.351,0.736-0.627,1.196-0.828c0.462-0.204,0.968-0.305,1.521-0.305c0.503,0,0.985,0.092,1.45,0.271
		c0.466,0.184,0.854,0.479,1.17,0.892L444.255,321.746z"/>
	<path fill="#47C1C3" d="M446.32,325.185c0-0.385,0.066-0.732,0.201-1.048c0.132-0.314,0.314-0.586,0.544-0.812
		c0.229-0.227,0.507-0.402,0.826-0.529c0.322-0.126,0.673-0.188,1.05-0.188s0.728,0.062,1.049,0.188
		c0.322,0.127,0.597,0.303,0.827,0.529c0.231,0.227,0.411,0.497,0.547,0.812c0.132,0.314,0.199,0.663,0.199,1.048
		c0,0.386-0.067,0.732-0.199,1.05c-0.136,0.313-0.314,0.583-0.547,0.812c-0.229,0.229-0.505,0.404-0.827,0.529
		c-0.321,0.126-0.672,0.188-1.049,0.188s-0.728-0.062-1.05-0.188c-0.318-0.125-0.597-0.301-0.826-0.529
		c-0.23-0.228-0.412-0.497-0.544-0.812C446.387,325.917,446.32,325.569,446.32,325.185z M447.202,325.185
		c0,0.261,0.04,0.499,0.119,0.719c0.081,0.221,0.198,0.413,0.353,0.575c0.153,0.165,0.336,0.296,0.55,0.39
		c0.212,0.094,0.453,0.141,0.718,0.141c0.266,0,0.506-0.047,0.719-0.141s0.396-0.225,0.549-0.39
		c0.155-0.162,0.272-0.354,0.353-0.575c0.079-0.22,0.12-0.458,0.12-0.719c0-0.259-0.041-0.499-0.12-0.718
		c-0.08-0.222-0.197-0.412-0.353-0.576c-0.152-0.164-0.336-0.295-0.549-0.389s-0.453-0.141-0.719-0.141s-0.506,0.047-0.718,0.141
		c-0.214,0.094-0.396,0.225-0.55,0.389c-0.154,0.164-0.271,0.354-0.353,0.576C447.242,324.686,447.202,324.926,447.202,325.185z"/>
	<path fill="#47C1C3" d="M457.223,326.767h-0.021c-0.155,0.28-0.398,0.518-0.729,0.708c-0.331,0.191-0.719,0.289-1.155,0.289
		c-0.346,0-0.666-0.064-0.966-0.193c-0.301-0.13-0.561-0.311-0.78-0.54c-0.221-0.23-0.395-0.504-0.521-0.817
		c-0.125-0.313-0.187-0.658-0.187-1.027c0-0.37,0.062-0.713,0.187-1.026c0.126-0.314,0.303-0.587,0.524-0.817
		c0.225-0.23,0.494-0.41,0.812-0.54c0.317-0.129,0.667-0.193,1.054-0.193c0.356,0,0.684,0.073,0.979,0.221
		c0.296,0.146,0.558,0.352,0.781,0.619h0.021v-3.732h0.818v7.925h-0.818V326.767z M457.223,325.185c0-0.259-0.041-0.499-0.122-0.718
		c-0.079-0.222-0.197-0.412-0.351-0.576c-0.155-0.164-0.336-0.295-0.55-0.389c-0.213-0.094-0.453-0.141-0.717-0.141
		c-0.269,0-0.507,0.047-0.72,0.141s-0.396,0.225-0.549,0.389c-0.155,0.164-0.271,0.354-0.353,0.576
		c-0.081,0.219-0.12,0.459-0.12,0.718c0,0.261,0.04,0.499,0.12,0.719c0.081,0.221,0.196,0.413,0.353,0.575
		c0.152,0.165,0.336,0.296,0.549,0.39c0.212,0.094,0.451,0.141,0.72,0.141c0.265,0,0.504-0.047,0.717-0.141
		c0.214-0.094,0.395-0.225,0.55-0.39c0.153-0.162,0.271-0.354,0.351-0.575C457.182,325.684,457.223,325.444,457.223,325.185z"/>
	<path fill="#47C1C3" d="M464.245,326.747c-0.293,0.377-0.616,0.64-0.964,0.79c-0.35,0.15-0.755,0.227-1.217,0.227
		c-0.384,0-0.729-0.067-1.037-0.205c-0.31-0.137-0.568-0.318-0.78-0.551c-0.214-0.229-0.378-0.502-0.494-0.815
		c-0.116-0.315-0.173-0.649-0.173-1.008c0-0.378,0.062-0.724,0.188-1.042c0.126-0.317,0.302-0.592,0.524-0.817
		c0.223-0.228,0.489-0.402,0.798-0.529c0.307-0.126,0.643-0.188,1.005-0.188c0.343,0,0.656,0.059,0.942,0.174
		c0.288,0.115,0.534,0.282,0.742,0.502c0.206,0.221,0.362,0.49,0.476,0.809c0.111,0.316,0.167,0.679,0.167,1.084v0.265h-3.962
		c0.014,0.209,0.065,0.409,0.152,0.602c0.088,0.193,0.202,0.359,0.34,0.504c0.141,0.143,0.305,0.256,0.494,0.34
		c0.188,0.083,0.396,0.125,0.616,0.125c0.357,0,0.658-0.062,0.903-0.188c0.245-0.127,0.463-0.312,0.66-0.555L464.245,326.747z
		 M463.542,324.745c-0.015-0.421-0.15-0.755-0.409-1.006c-0.26-0.253-0.614-0.378-1.07-0.378c-0.452,0-0.82,0.125-1.101,0.378
		c-0.279,0.251-0.447,0.585-0.503,1.006H463.542z"/>
	<path fill="#47C1C3" d="M466.006,323.896c0-0.226-0.008-0.434-0.021-0.63c-0.016-0.193-0.021-0.374-0.021-0.534h0.775
		c0,0.132,0.004,0.267,0.012,0.397c0.006,0.132,0.011,0.271,0.011,0.409h0.019c0.058-0.119,0.137-0.234,0.236-0.348
		c0.104-0.11,0.224-0.211,0.363-0.298c0.139-0.087,0.295-0.156,0.471-0.21c0.174-0.052,0.362-0.078,0.564-0.078
		c0.058,0,0.113,0.004,0.169,0.011c0.056,0.006,0.112,0.021,0.168,0.042l-0.053,0.828c-0.141-0.041-0.287-0.063-0.439-0.063
		c-0.505,0-0.87,0.163-1.096,0.488c-0.229,0.325-0.342,0.771-0.342,1.336v2.391h-0.816V323.896L466.006,323.896z"/>
	<path fill="#47C1C3" d="M470.02,320.216h2.853c0.245,0,0.501,0.027,0.774,0.084c0.272,0.057,0.544,0.146,0.813,0.269
		c0.268,0.123,0.527,0.279,0.775,0.478c0.248,0.193,0.465,0.433,0.654,0.706c0.19,0.276,0.339,0.597,0.451,0.953
		c0.111,0.362,0.167,0.768,0.167,1.222c0,0.456-0.057,0.863-0.167,1.222c-0.112,0.359-0.261,0.68-0.451,0.955
		c-0.189,0.275-0.407,0.512-0.654,0.707c-0.247,0.196-0.508,0.354-0.775,0.479c-0.271,0.121-0.541,0.211-0.813,0.266
		c-0.272,0.059-0.529,0.085-0.774,0.085h-2.853V320.216z M470.9,326.82h1.678c0.426,0,0.821-0.058,1.184-0.169
		c0.363-0.11,0.676-0.284,0.944-0.518c0.265-0.235,0.474-0.533,0.627-0.896c0.154-0.363,0.231-0.801,0.231-1.312
		c0-0.509-0.078-0.945-0.231-1.31c-0.153-0.363-0.363-0.661-0.627-0.897c-0.269-0.231-0.581-0.404-0.944-0.516
		c-0.362-0.113-0.758-0.17-1.184-0.17H470.9V326.82z"/>
	<path fill="#47C1C3" d="M477.808,325.185c0-0.385,0.067-0.732,0.199-1.048c0.132-0.314,0.316-0.586,0.545-0.812
		c0.231-0.228,0.508-0.402,0.829-0.529c0.322-0.126,0.67-0.188,1.047-0.188c0.378,0,0.727,0.062,1.048,0.188
		c0.321,0.127,0.599,0.303,0.827,0.529c0.231,0.227,0.412,0.497,0.548,0.812c0.132,0.314,0.199,0.663,0.199,1.048
		c0,0.386-0.067,0.732-0.199,1.05c-0.136,0.313-0.315,0.583-0.548,0.812c-0.229,0.229-0.506,0.404-0.827,0.529
		c-0.321,0.126-0.67,0.188-1.048,0.188c-0.377,0-0.725-0.062-1.047-0.188c-0.321-0.125-0.598-0.301-0.829-0.529
		c-0.229-0.229-0.413-0.497-0.545-0.812C477.875,325.917,477.808,325.569,477.808,325.185z M478.689,325.185
		c0,0.261,0.039,0.499,0.119,0.719c0.081,0.221,0.196,0.413,0.352,0.575c0.154,0.165,0.336,0.296,0.55,0.39
		c0.213,0.094,0.452,0.141,0.717,0.141c0.267,0,0.506-0.047,0.72-0.141c0.212-0.094,0.396-0.225,0.548-0.39
		c0.155-0.162,0.272-0.354,0.352-0.575c0.08-0.22,0.121-0.458,0.121-0.719c0-0.259-0.041-0.499-0.121-0.718
		c-0.078-0.222-0.195-0.412-0.352-0.576c-0.151-0.164-0.336-0.295-0.548-0.389c-0.214-0.094-0.453-0.141-0.72-0.141
		c-0.266,0-0.504,0.047-0.717,0.141c-0.214,0.094-0.396,0.225-0.55,0.389c-0.155,0.164-0.271,0.354-0.352,0.576
		C478.729,324.686,478.689,324.926,478.689,325.185z"/>
	<path fill="#47C1C3" d="M485.521,328.738c0,0.126-0.019,0.271-0.058,0.435s-0.11,0.317-0.215,0.462
		c-0.104,0.144-0.252,0.266-0.444,0.366c-0.191,0.101-0.438,0.15-0.739,0.15c-0.098,0-0.192-0.007-0.287-0.021
		c-0.097-0.014-0.188-0.041-0.278-0.083l0.094-0.713c0.133,0.041,0.268,0.063,0.398,0.063c0.155,0,0.277-0.029,0.373-0.084
		c0.092-0.059,0.166-0.135,0.214-0.227c0.049-0.095,0.082-0.206,0.101-0.33c0.018-0.127,0.025-0.259,0.025-0.399v-5.628h0.816
		V328.738z M484.518,320.812c0-0.158,0.058-0.3,0.174-0.418c0.114-0.119,0.255-0.18,0.423-0.18s0.311,0.061,0.427,0.18
		c0.114,0.118,0.171,0.26,0.171,0.418c0,0.176-0.056,0.319-0.166,0.432c-0.113,0.109-0.256,0.168-0.432,0.168
		c-0.174,0-0.316-0.059-0.431-0.168C484.572,321.133,484.518,320.988,484.518,320.812z"/>
	<path fill="#47C1C3" d="M487.178,325.185c0-0.385,0.067-0.732,0.201-1.048c0.131-0.314,0.314-0.586,0.544-0.812
		c0.231-0.228,0.507-0.402,0.829-0.529c0.322-0.126,0.67-0.188,1.047-0.188c0.378,0,0.728,0.062,1.049,0.188
		c0.322,0.127,0.598,0.303,0.826,0.529c0.232,0.227,0.414,0.497,0.547,0.812s0.199,0.663,0.199,1.048
		c0,0.386-0.066,0.732-0.199,1.05c-0.133,0.313-0.313,0.583-0.547,0.812c-0.229,0.229-0.504,0.404-0.826,0.529
		c-0.321,0.126-0.671,0.188-1.049,0.188c-0.377,0-0.725-0.062-1.047-0.188c-0.322-0.125-0.598-0.301-0.829-0.529
		c-0.229-0.229-0.413-0.497-0.544-0.812C487.245,325.917,487.178,325.569,487.178,325.185z M488.06,325.185
		c0,0.261,0.04,0.499,0.12,0.719c0.08,0.221,0.199,0.413,0.353,0.575c0.152,0.165,0.337,0.296,0.55,0.39s0.453,0.141,0.718,0.141
		c0.267,0,0.506-0.047,0.719-0.141c0.214-0.094,0.396-0.225,0.55-0.39c0.153-0.162,0.271-0.354,0.353-0.575
		c0.079-0.22,0.12-0.458,0.12-0.719c0-0.259-0.041-0.499-0.12-0.718c-0.081-0.222-0.198-0.412-0.353-0.576
		c-0.152-0.164-0.336-0.295-0.55-0.389c-0.213-0.094-0.452-0.141-0.719-0.141c-0.265,0-0.505,0.047-0.718,0.141
		s-0.396,0.225-0.55,0.389c-0.152,0.164-0.271,0.354-0.353,0.576C488.1,324.686,488.06,324.926,488.06,325.185z"/>
	<path fill="#47C1C3" d="M493.981,320.216h2.757c0.385,0,0.746,0.035,1.088,0.104c0.346,0.069,0.644,0.191,0.896,0.361
		c0.259,0.172,0.459,0.403,0.608,0.691c0.151,0.29,0.227,0.655,0.227,1.097c0,0.433-0.068,0.796-0.21,1.091
		c-0.14,0.292-0.331,0.526-0.575,0.7c-0.244,0.177-0.533,0.3-0.871,0.373c-0.335,0.074-0.698,0.11-1.09,0.11h-1.193v2.893h-1.636
		V320.216L493.981,320.216z M495.617,323.361h1.091c0.146,0,0.287-0.015,0.423-0.041c0.137-0.029,0.26-0.076,0.367-0.145
		c0.108-0.066,0.195-0.156,0.264-0.271c0.064-0.113,0.099-0.261,0.099-0.435c0-0.188-0.043-0.343-0.13-0.457
		c-0.09-0.114-0.2-0.203-0.337-0.268c-0.136-0.063-0.288-0.104-0.455-0.119c-0.167-0.018-0.328-0.027-0.482-0.027h-0.838
		L495.617,323.361L495.617,323.361z"/>
	<path fill="#47C1C3" d="M500.511,325.09c0-0.405,0.074-0.771,0.221-1.1c0.147-0.328,0.349-0.611,0.604-0.847
		c0.256-0.231,0.555-0.412,0.902-0.538c0.345-0.125,0.714-0.188,1.104-0.188c0.392,0,0.76,0.063,1.105,0.188
		c0.347,0.126,0.646,0.307,0.9,0.538c0.254,0.234,0.456,0.519,0.604,0.847c0.147,0.328,0.219,0.693,0.219,1.1
		s-0.071,0.772-0.219,1.103c-0.147,0.327-0.351,0.608-0.604,0.843c-0.255,0.234-0.555,0.415-0.9,0.54
		c-0.347,0.126-0.715,0.188-1.105,0.188c-0.392,0-0.761-0.062-1.104-0.188c-0.349-0.125-0.646-0.306-0.902-0.54
		c-0.255-0.233-0.455-0.516-0.604-0.843C500.585,325.862,500.511,325.496,500.511,325.09z M502.084,325.09
		c0,0.384,0.111,0.695,0.33,0.935c0.222,0.236,0.529,0.354,0.928,0.354c0.399,0,0.707-0.118,0.931-0.354
		c0.219-0.238,0.327-0.551,0.327-0.935c0-0.383-0.108-0.693-0.327-0.933c-0.224-0.239-0.531-0.357-0.931-0.357
		c-0.398,0-0.706,0.118-0.928,0.357C502.195,324.396,502.084,324.707,502.084,325.09z"/>
	<path fill="#47C1C3" d="M507.408,322.543h1.572v0.818h0.021c0.168-0.315,0.367-0.552,0.598-0.709
		c0.229-0.156,0.521-0.235,0.871-0.235c0.09,0,0.181,0.005,0.271,0.013c0.09,0.006,0.176,0.021,0.251,0.041v1.435
		c-0.112-0.033-0.223-0.062-0.329-0.077c-0.109-0.018-0.224-0.027-0.342-0.027c-0.3,0-0.539,0.043-0.712,0.126
		c-0.176,0.086-0.311,0.201-0.404,0.353c-0.093,0.151-0.155,0.33-0.186,0.539c-0.026,0.21-0.041,0.44-0.041,0.69v2.13h-1.571
		L507.408,322.543L507.408,322.543z"/>
	<path fill="#47C1C3" d="M515.457,323.8h-1.383v1.699c0,0.142,0.008,0.268,0.021,0.382c0.015,0.115,0.045,0.216,0.095,0.299
		c0.049,0.086,0.125,0.148,0.227,0.195c0.101,0.045,0.235,0.066,0.404,0.066c0.084,0,0.19-0.009,0.328-0.024
		c0.137-0.019,0.239-0.06,0.309-0.121v1.311c-0.173,0.062-0.355,0.104-0.542,0.127c-0.19,0.02-0.374,0.03-0.558,0.03
		c-0.266,0-0.511-0.028-0.733-0.084c-0.223-0.057-0.419-0.146-0.588-0.269c-0.167-0.122-0.296-0.281-0.394-0.479
		c-0.094-0.191-0.141-0.432-0.141-0.711V323.8h-1.008v-1.257h1.008v-1.51h1.571v1.51h1.383L515.457,323.8L515.457,323.8z"/>
	<path fill="#47C1C3" d="M516.38,325.09c0-0.405,0.074-0.771,0.221-1.1c0.147-0.328,0.349-0.611,0.604-0.847
		c0.253-0.231,0.556-0.412,0.901-0.538c0.346-0.125,0.714-0.188,1.105-0.188s0.758,0.063,1.106,0.188
		c0.345,0.126,0.644,0.307,0.898,0.538c0.255,0.234,0.456,0.519,0.604,0.847c0.146,0.328,0.22,0.693,0.22,1.1
		s-0.074,0.772-0.22,1.103c-0.147,0.327-0.35,0.608-0.604,0.843c-0.256,0.234-0.555,0.415-0.898,0.54
		c-0.35,0.126-0.717,0.188-1.106,0.188c-0.393,0-0.761-0.062-1.105-0.188c-0.347-0.125-0.648-0.306-0.901-0.54
		c-0.256-0.233-0.456-0.516-0.604-0.843C516.454,325.862,516.38,325.496,516.38,325.09z M517.953,325.09
		c0,0.384,0.109,0.695,0.331,0.935c0.219,0.236,0.528,0.354,0.928,0.354c0.397,0,0.708-0.118,0.927-0.354
		c0.222-0.238,0.33-0.551,0.33-0.935c0-0.383-0.108-0.693-0.33-0.933c-0.219-0.239-0.528-0.357-0.927-0.357
		c-0.397,0-0.709,0.118-0.928,0.357C518.062,324.396,517.953,324.707,517.953,325.09z"/>
</g>
</svg>
